<svg id="Layer_1" data-name="Layer 1" xmlns="http://www.w3.org/2000/svg" xmlns:xlink="http://www.w3.org/1999/xlink" viewBox="0 0 40 37.25"><defs><style>.cls-1{fill:#f4f4f5;}.cls-2{fill:url(#linear-gradient);}.cls-3{fill:#00ae4d;}.cls-4{fill:#fff;}</style><linearGradient id="linear-gradient" x1="18.28" y1="26.59" x2="37.73" y2="26.59" gradientUnits="userSpaceOnUse"><stop offset="0" stop-color="#fff"/><stop offset="0" stop-color="#f6f6f6"/><stop offset="0" stop-color="#c8c8c8"/><stop offset="0" stop-color="#9d9d9d"/><stop offset="0" stop-color="#777"/><stop offset="0" stop-color="#575757"/><stop offset="0" stop-color="#3b3b3b"/><stop offset="0" stop-color="#252525"/><stop offset="0" stop-color="#141414"/><stop offset="0" stop-color="#090909"/><stop offset="0" stop-color="#020202"/><stop offset="0"/><stop offset="0.03" stop-color="#292929"/><stop offset="0.07" stop-color="#525252"/><stop offset="0.12" stop-color="#777778"/><stop offset="0.17" stop-color="#979898"/><stop offset="0.22" stop-color="#b2b3b4"/><stop offset="0.28" stop-color="#c8c9ca"/><stop offset="0.35" stop-color="#d9dadb"/><stop offset="0.44" stop-color="#e4e5e6"/><stop offset="0.57" stop-color="#ebeced"/><stop offset="0.91" stop-color="#edeeef"/></linearGradient></defs><title>1</title><rect class="cls-1" x="-214.85" y="-126.11" width="811.16" height="481.53"/><path class="cls-2" d="M37.46,22.37c-1.15-2.82-5.67-3.64-10.1-1.83s-10.08,9-8.93,11.82,8.67.19,13.1-1.62S38.61,25.19,37.46,22.37Z"/><path class="cls-3" d="M27.29,12.74a8.77,8.77,0,0,0-17.53,0c0,1.82,1.24,5.19,2.79,8.68L26.92,15A9.56,9.56,0,0,0,27.29,12.74Z"/><path class="cls-3" d="M26.92,15,12.55,21.42c2.57,5.77,6,11.88,6,11.88S25.25,21.23,26.92,15Z"/><circle class="cls-4" cx="18.53" cy="12.74" r="3.34"/></svg>